<?xml version="1.0" standalone="no"?>
<!DOCTYPE svg PUBLIC "-//W3C//DTD SVG 20010904//EN"
 "http://www.w3.org/TR/2001/REC-SVG-20010904/DTD/svg10.dtd">
<svg version="1.0" xmlns="http://www.w3.org/2000/svg"
 width="600.000000pt" height="600.000000pt" viewBox="0 0 600.000000 600.000000"
 preserveAspectRatio="xMidYMid meet">
<g transform="translate(0.000000,600.000000) scale(0.100000,-0.100000)"
fill="#000000" stroke="none">
<path d="M2297 5805 c-137 -47 -231 -132 -297 -269 -66 -139 -75 -192 -75
-431 0 -192 3 -220 27 -321 14 -61 39 -142 53 -180 78 -197 294 -420 603 -623
89 -58 95 -77 22 -75 -92 3 -238 102 -411 280 -175 181 -263 347 -321 605 -19
86 -23 133 -23 271 0 91 -1 165 -2 164 -6 -6 -42 -200 -53 -286 -27 -205 -7
-548 39 -682 81 -235 296 -445 619 -605 62 -31 116 -53 120 -49 9 9 -58 67
-69 60 -5 -3 -9 -1 -9 4 0 6 -11 13 -24 16 -31 8 -238 132 -252 151 -6 8 -15
15 -20 15 -14 0 -163 137 -157 144 4 3 1 6 -5 6 -7 0 -12 4 -12 9 0 5 -12 23
-27 39 -44 47 -50 56 -45 72 3 8 1 12 -3 8 -17 -16 -68 92 -93 192 -41 167
-54 424 -22 453 10 10 11 6 8 -15 -3 -15 -1 -25 4 -22 5 3 6 -6 2 -20 -3 -15
-2 -26 3 -26 6 0 18 -29 28 -65 9 -36 21 -68 27 -71 5 -3 6 -15 3 -27 -5 -17
-4 -19 4 -7 9 13 11 13 11 -1 0 -10 13 -42 29 -72 16 -31 26 -59 23 -63 -4 -4
-1 -4 6 0 6 4 12 3 12 -2 0 -5 19 -37 41 -71 42 -64 251 -281 270 -281 6 0 7
-6 3 -12 -4 -7 -4 -10 1 -6 4 4 32 -15 62 -42 30 -27 57 -49 61 -48 4 1 33
-11 65 -26 55 -25 151 -41 141 -24 -3 5 2 8 11 8 8 0 18 7 21 15 4 8 9 13 13
11 3 -2 6 9 7 24 1 21 -3 27 -14 22 -11 -4 -14 -1 -9 11 4 12 1 17 -11 17 -21
1 -52 23 -52 38 0 6 -7 9 -15 6 -8 -4 -15 -1 -15 5 0 6 -5 11 -11 11 -11 0
-83 52 -104 74 -5 6 -30 24 -55 40 -25 17 -63 48 -85 70 -22 23 -44 40 -49 38
-5 -2 -4 3 2 11 14 16 6 28 -14 20 -8 -3 -14 0 -14 7 0 6 -3 9 -7 7 -5 -2 -18
7 -30 19 -14 15 -17 25 -10 28 7 2 6 5 -3 5 -14 1 -76 61 -63 61 2 0 -3 7 -11
16 -9 8 -14 20 -11 25 4 5 -2 6 -12 2 -10 -3 -15 -3 -11 2 4 4 -1 20 -11 34
-48 68 -101 214 -116 319 -2 18 -7 37 -10 41 -17 29 -27 318 -13 396 6 33 11
70 11 83 -1 12 3 22 9 22 5 0 7 4 3 9 -17 28 86 242 137 286 57 49 100 76 111
72 9 -4 9 -6 0 -6 -7 -1 -13 -6 -13 -11 0 -6 -9 -29 -19 -53 -65 -141 -119
-316 -106 -338 4 -5 2 -9 -3 -9 -5 0 -11 -21 -13 -47 -7 -85 -3 -337 6 -358
10 -24 9 -21 19 -65 5 -19 13 -41 20 -49 8 -11 8 -13 -1 -7 -7 4 -13 2 -13 -3
0 -6 5 -11 10 -11 6 0 10 -10 10 -22 0 -12 3 -18 6 -15 8 8 43 -55 37 -66 -2
-4 0 -6 5 -5 6 2 11 -1 11 -7 1 -5 15 -24 32 -41 16 -17 26 -34 22 -39 -5 -4
-2 -5 5 -1 8 5 21 1 33 -10 37 -33 29 -7 -16 50 -63 82 -100 150 -127 236 -20
67 -23 94 -23 250 1 157 4 187 28 285 46 182 126 349 197 408 18 15 31 29 29
31 -2 2 -34 -6 -72 -19z"/>
<path d="M2370 5389 c-154 -304 -181 -552 -83 -761 25 -55 52 -81 38 -38 -6
19 -5 19 17 -2 13 -13 37 -41 53 -63 45 -61 66 -86 117 -137 25 -27 44 -48 42
-48 -9 0 72 -67 89 -73 21 -8 49 2 41 14 -3 5 -3 9 -1 9 3 0 19 -28 36 -62 42
-88 92 -141 133 -142 39 -2 61 -13 52 -27 -3 -5 0 -8 8 -7 7 2 14 -7 16 -19 2
-12 12 -25 23 -28 10 -4 19 -13 19 -20 0 -8 5 -17 12 -21 7 -5 8 -3 3 7 -8 12
-6 12 8 0 9 -7 15 -17 12 -21 -3 -4 7 -15 20 -24 14 -10 23 -22 19 -28 -4 -7
-3 -8 4 -4 7 4 12 2 12 -5 0 -7 3 -9 6 -6 4 4 20 -10 36 -31 16 -20 34 -37 39
-37 5 0 25 -15 44 -32 20 -18 46 -33 58 -33 17 0 -5 26 -100 118 -206 197
-262 274 -263 355 0 21 7 52 16 70 l17 32 -21 -19 c-40 -35 -53 -128 -27 -191
17 -41 -85 70 -114 125 -79 148 -80 300 -4 377 37 37 30 44 -11 12 -65 -52
-105 -205 -77 -304 7 -25 7 -42 1 -47 -5 -5 -8 -5 -5 -2 2 4 -34 47 -80 96
-170 178 -249 311 -282 470 -15 76 -16 100 -5 191 11 100 48 234 100 365 12
28 20 52 17 52 -3 0 -19 -27 -35 -61z"/>
<path d="M3630 5389 c-138 -114 -242 -298 -285 -502 -8 -38 -15 -82 -15 -98 0
-19 -13 -47 -35 -76 -94 -123 -109 -315 -44 -538 30 -99 100 -275 110 -275 15
0 10 43 -10 101 -10 30 -24 70 -31 89 -6 19 -16 44 -21 55 -16 36 -50 189 -53
240 -2 28 -2 42 1 33 2 -10 9 -18 14 -18 5 0 9 -7 9 -15 0 -8 4 -15 9 -15 4 0
7 -12 5 -26 -1 -14 0 -23 3 -20 8 8 45 -53 39 -63 -3 -4 1 -8 9 -8 19 0 19 1
-10 86 -33 99 -46 197 -34 277 15 110 28 111 29 4 1 -98 12 -205 31 -299 9
-46 13 -52 21 -36 8 13 7 54 -2 134 -14 137 -22 351 -12 351 4 0 8 14 9 32 1
17 7 36 13 42 5 5 10 26 10 45 0 19 2 32 5 29 3 -3 6 -61 6 -128 0 -68 4 -157
10 -199 14 -107 39 -242 49 -266 5 -11 11 -36 13 -55 3 -19 19 -87 36 -150 17
-63 28 -123 25 -135 -4 -11 -3 -17 1 -13 4 4 16 -3 25 -15 17 -21 59 -30 70
-16 3 4 32 23 65 41 77 43 77 58 3 136 l-56 60 51 -3 c29 -2 55 -3 58 -4 3 -1
10 -11 16 -24 6 -12 29 -31 52 -42 22 -11 41 -23 41 -26 0 -4 15 -13 33 -20
17 -7 38 -21 45 -31 8 -10 19 -18 25 -17 21 4 47 -13 47 -30 0 -12 2 -13 8 -3
13 19 143 -111 172 -171 20 -43 22 -59 17 -128 -5 -74 -3 -82 29 -148 19 -39
34 -78 34 -86 0 -9 4 -14 8 -11 5 3 9 -1 9 -8 0 -7 -6 -13 -14 -13 -7 0 -13 3
-13 7 0 9 -95 70 -108 70 -6 0 -12 4 -14 8 -3 10 -129 62 -148 62 -6 0 -8 4
-5 10 3 6 -1 7 -9 4 -9 -3 -16 -1 -16 5 0 6 -3 10 -7 9 -16 -3 -63 26 -63 39
0 8 -4 11 -10 8 -5 -3 -10 -2 -10 2 0 5 -10 13 -22 19 -47 22 -108 -43 -108
-115 0 -18 7 -48 16 -69 18 -39 20 -46 22 -75 1 -10 7 -15 12 -12 6 3 10 0 10
-7 0 -8 14 -28 30 -46 32 -35 38 -48 18 -36 -9 5 -9 2 1 -9 7 -9 20 -17 28
-17 10 0 13 -6 9 -17 -4 -10 -4 -14 0 -11 7 8 49 -40 49 -55 0 -4 11 -17 25
-28 14 -12 18 -17 10 -13 -8 4 -4 -3 9 -17 13 -14 30 -43 39 -65 20 -50 28
-239 11 -260 -8 -10 -8 -14 0 -14 7 0 8 -8 1 -25 -5 -14 -9 -29 -8 -33 1 -4
-1 -14 -4 -22 -3 -8 -13 -40 -23 -70 -25 -75 -91 -198 -126 -235 -16 -17 -29
-35 -29 -40 -1 -15 -33 -50 -54 -58 -11 -4 -16 -13 -12 -23 3 -8 2 -13 -3 -9
-5 3 -19 -7 -30 -21 -12 -15 -21 -24 -21 -22 0 5 -83 -79 -136 -137 -12 -13
-19 -26 -16 -30 3 -3 -3 -8 -15 -11 -13 -4 -20 -11 -16 -20 3 -8 1 -14 -4 -14
-6 0 -15 -10 -22 -22 -25 -49 -47 -80 -53 -77 -14 9 -81 -74 -77 -97 0 -4 -3
-10 -8 -13 -5 -3 -19 -23 -31 -45 -26 -44 -41 -166 -21 -166 7 0 9 -9 6 -21
-3 -12 1 -32 10 -45 8 -13 12 -24 8 -24 -4 0 0 -11 9 -24 12 -18 12 -26 3 -29
-9 -4 -9 -6 1 -6 16 -1 63 -51 58 -60 -3 -4 9 -13 25 -20 17 -7 28 -15 26 -18
-7 -6 -77 29 -77 39 0 4 -11 18 -25 30 -14 12 -25 30 -25 40 0 10 -7 18 -15
18 -9 0 -15 6 -14 13 6 35 -41 95 -73 94 -17 0 -81 -61 -87 -82 -1 -5 -8 -17
-15 -25 -18 -21 -46 -80 -46 -97 0 -8 -4 -12 -8 -9 -4 2 -9 -7 -10 -22 -1 -14
-6 -29 -12 -32 -5 -3 -9 -39 -9 -80 -1 -94 2 -114 18 -134 11 -14 11 -16 -3
-16 -14 0 -21 18 -17 42 0 5 -3 8 -7 8 -4 0 -8 8 -8 18 -1 9 -5 26 -9 36 -7
15 -5 17 6 11 12 -8 12 -6 0 8 -7 9 -18 14 -25 10 -6 -4 -5 0 2 9 10 13 10 18
1 24 -8 4 -9 3 -5 -4 4 -7 2 -12 -3 -12 -18 0 -12 -75 9 -133 12 -32 42 -78
74 -113 125 -138 294 -170 398 -76 51 46 68 80 68 135 0 77 -71 148 -145 146
l-30 -1 34 -8 c133 -32 151 -190 27 -249 -70 -35 -135 -24 -219 35 -92 65
-147 190 -128 290 18 94 63 185 140 283 l19 25 10 -38 c28 -101 131 -210 227
-241 86 -27 177 -10 239 44 57 50 74 161 33 222 -37 56 -126 87 -167 58 -12
-8 -9 -9 12 -5 66 15 138 -47 138 -118 0 -82 -58 -136 -146 -136 -128 0 -231
120 -238 277 -3 65 -2 72 49 165 l52 98 9 -37 c12 -50 34 -55 34 -8 0 73 43
137 212 313 92 96 184 203 217 253 99 148 157 345 149 513 -5 111 -35 183
-124 296 -99 125 -113 147 -144 212 -35 75 -38 128 -9 169 l20 29 41 -40 c25
-24 71 -52 117 -71 244 -99 303 -151 355 -311 l23 -73 8 43 c14 84 -20 215
-91 352 -31 60 -33 71 -31 150 1 69 -2 94 -20 133 -37 80 -115 151 -257 235
-214 127 -275 207 -277 365 l-1 72 -13 -40 c-17 -52 -18 -160 -1 -205 7 -19
17 -44 20 -55 5 -12 -7 -4 -29 20 -51 56 -93 148 -112 244 -14 70 -18 80 -26
60 -5 -13 -7 -65 -5 -115 5 -122 42 -199 144 -301 46 -47 66 -73 55 -73 -10 0
-43 -16 -76 -35 -32 -20 -59 -34 -60 -33 0 2 -13 55 -28 118 -15 63 -40 171
-57 240 -48 202 -63 332 -58 493 9 253 74 426 216 580 25 26 42 47 39 47 -3 0
-33 -23 -67 -51z"/>
<path d="M1763 4595 c-77 -274 -48 -566 76 -774 83 -140 263 -299 426 -376 90
-42 115 -50 115 -34 0 7 -3 10 -6 7 -3 -3 -19 7 -36 22 -17 16 -50 36 -74 45
-24 9 -42 20 -40 24 3 4 0 8 -7 8 -17 0 -67 33 -67 45 0 5 -4 7 -9 3 -6 -3
-15 4 -21 15 -6 11 -16 20 -22 20 -7 0 -21 10 -33 23 -11 13 -15 16 -10 8 9
-12 7 -12 -12 0 -12 7 -21 15 -19 17 7 6 -46 57 -56 54 -5 -1 -7 2 -4 7 4 5 1
13 -7 18 -21 13 -57 65 -52 73 3 5 0 12 -6 16 -8 5 -10 2 -5 -7 4 -8 1 -6 -6
5 -43 62 -54 83 -50 95 3 9 0 11 -8 6 -8 -5 -11 -4 -6 3 6 9 1 27 -25 87 -23
54 -51 301 -32 282 3 -4 7 -15 8 -25 1 -9 7 -30 14 -46 6 -16 9 -36 7 -43 -3
-8 -2 -12 3 -9 5 3 12 -6 16 -22 17 -71 105 -218 152 -253 17 -13 29 -27 27
-30 -1 -3 14 -16 36 -30 21 -13 45 -35 54 -49 8 -14 16 -20 16 -13 0 11 23 -5
70 -49 10 -9 21 -14 24 -11 3 4 15 -2 26 -12 11 -10 20 -14 20 -9 0 5 4 5 8
-1 10 -15 108 -60 178 -84 77 -25 138 -36 161 -26 13 4 -18 19 -101 46 -277
91 -498 252 -589 428 -73 140 -98 250 -106 461 l-6 165 -22 -80z"/>
<path d="M3172 4336 c-61 -103 -74 -250 -33 -358 26 -66 119 -213 129 -203 12
12 8 40 -9 55 -27 26 -91 173 -93 212 0 20 -4 34 -7 32 -4 -2 -5 5 -2 16 4 15
12 6 34 -38 51 -101 147 -200 165 -170 4 7 2 8 -4 4 -7 -4 -12 -2 -12 3 0 6
-27 47 -60 91 -88 119 -116 225 -89 339 13 56 7 61 -19 17z"/>
<path d="M1651 4220 c-2 -153 52 -376 126 -510 19 -36 54 -101 77 -145 109
-211 260 -335 481 -400 96 -28 262 -43 330 -31 54 11 26 26 -47 26 -31 0 -79
4 -105 9 -26 6 -70 12 -98 15 -81 8 -261 87 -317 139 -16 15 -28 23 -28 20 0
-10 -83 80 -117 126 -17 25 -30 48 -27 53 3 4 0 8 -6 8 -7 0 -9 7 -6 16 3 8 2
13 -3 10 -10 -6 -37 41 -28 50 8 8 27 -4 27 -17 0 -6 -5 -7 -12 -3 -7 4 -8 3
-4 -5 6 -9 11 -9 22 0 14 11 19 2 15 -24 -1 -5 3 -5 10 -2 11 7 46 -33 41 -48
-1 -4 4 -6 10 -5 7 2 12 -3 10 -11 -3 -12 -1 -12 14 0 12 9 15 9 10 2 -4 -8
-1 -13 9 -13 10 0 13 -5 9 -12 -4 -7 -4 -10 1 -6 4 4 17 2 29 -4 11 -7 24 -11
29 -10 4 1 7 -2 7 -8 0 -5 18 -15 40 -21 22 -7 37 -16 33 -22 -3 -6 -1 -7 4
-4 14 9 74 -3 68 -13 -5 -8 2 -9 79 -10 39 0 72 14 38 17 -34 3 -188 56 -252
87 -134 65 -308 275 -384 466 -19 48 -42 128 -51 176 -34 182 -32 177 -34 104z"/>
<path d="M1638 3930 c-19 -64 -3 -225 33 -334 28 -85 168 -344 224 -416 99
-125 287 -241 475 -292 76 -20 107 -23 292 -23 189 0 232 4 215 21 -3 3 -86 7
-184 9 -238 4 -335 23 -497 100 -28 13 -55 25 -61 27 -12 3 -39 24 -72 55 -13
12 -23 20 -23 17 0 -3 -20 14 -45 37 -24 23 -42 46 -38 52 4 6 1 7 -6 3 -17
-11 -43 25 -30 40 7 8 4 11 -8 10 -11 0 -24 12 -34 31 -9 18 -19 29 -23 25 -4
-4 -6 -2 -5 3 2 6 -2 20 -9 33 -8 14 -9 22 -2 22 5 0 10 -5 10 -10 0 -6 5 -9
11 -8 7 2 27 -16 45 -40 19 -24 34 -38 34 -31 0 8 7 6 20 -6 11 -10 17 -22 13
-28 -3 -6 -1 -7 6 -3 6 4 32 -8 60 -28 27 -20 53 -36 58 -36 6 0 21 -8 34 -18
32 -24 145 -72 170 -72 11 0 18 -4 15 -9 -3 -4 19 -8 48 -7 30 1 53 -1 51 -4
-4 -7 62 -4 121 5 27 5 54 7 61 6 22 -3 103 41 115 63 9 18 9 19 -3 9 -43 -35
-306 -56 -394 -32 -115 32 -293 140 -405 245 -158 150 -247 327 -259 519 -4
62 -8 82 -13 65z"/>
<path d="M1636 3193 c64 -280 459 -485 934 -484 74 0 159 5 189 11 30 5 56 9
58 7 5 -6 -164 -82 -222 -101 -99 -31 -202 -47 -320 -48 l-120 -1 55 -14 c30
-7 110 -16 177 -20 212 -10 341 22 595 147 87 44 158 76 158 72 0 -23 -143
-137 -230 -186 -74 -41 -72 -42 36 -20 98 20 173 55 289 132 75 51 91 58 99
45 5 -9 11 -64 13 -122 6 -132 -12 -223 -66 -335 -72 -149 -175 -264 -281
-315 -48 -23 -68 -26 -155 -26 -109 0 -148 14 -187 66 -22 29 -34 95 -24 133
8 33 52 83 89 103 32 16 105 21 147 9 l25 -7 -25 15 c-14 9 -50 15 -83 16
-237 1 -286 -315 -61 -399 71 -27 157 -35 229 -22 69 13 185 66 185 85 0 16
-27 14 -60 -4 -14 -8 -29 -14 -35 -15 -5 0 -20 -6 -33 -13 -26 -15 -75 -6 -51
9 19 12 32 11 24 -1 -3 -5 -1 -10 4 -10 6 0 11 4 11 8 0 5 18 18 40 31 22 12
45 30 51 39 9 15 10 15 4 -3 -3 -12 5 -7 22 15 16 19 48 55 72 80 23 25 50 59
59 75 19 38 55 89 65 93 4 2 7 11 7 21 0 9 5 22 11 28 37 37 69 285 50 386
-18 99 -60 117 -142 62 -27 -19 -47 -29 -43 -22 4 7 -9 -3 -28 -21 -28 -27
-37 -30 -46 -19 -9 10 -7 17 8 30 11 9 20 24 20 32 0 10 5 13 13 9 6 -4 4 2
-6 13 -21 24 -61 35 -75 21 -5 -5 -16 -10 -24 -12 -8 -1 -66 -27 -129 -58
-137 -67 -156 -74 -156 -53 0 8 3 13 5 10 6 -6 52 42 52 54 0 25 -34 34 -118
30 -120 -6 -306 0 -310 9 -1 4 -17 7 -35 5 -17 -2 -54 3 -82 11 l-50 15 40 -2
c22 -1 43 -6 47 -12 5 -6 8 -5 8 3 0 6 7 12 16 12 8 0 13 -3 11 -7 -7 -11 198
-5 303 8 100 12 234 49 222 61 -4 4 -41 1 -82 -8 -120 -25 -432 -30 -562 -10
-238 38 -412 114 -509 224 -43 49 -79 111 -79 136 0 8 -5 18 -10 21 -7 4 -9
-3 -4 -22z"/>
<path d="M3151 1932 c-1 -14 -84 -94 -130 -124 -29 -20 -12 -24 22 -6 51 27
-8 -24 -79 -68 -241 -150 -477 -114 -525 81 l-7 30 -1 -35 c-2 -81 72 -175
166 -210 98 -36 246 -25 367 29 27 11 50 20 52 18 10 -10 -126 -128 -233 -204
-331 -231 -425 -313 -513 -449 -53 -81 -93 -191 -105 -286 -7 -58 8 -181 26
-208 6 -10 7 0 2 30 -12 69 -6 174 12 232 42 130 144 262 286 370 43 33 64 55
57 59 -7 4 -21 3 -32 -3 -19 -10 -20 -10 -7 6 8 9 20 15 27 12 8 -3 11 0 8 8
-5 12 73 73 89 68 4 -1 7 5 7 13 0 8 7 15 15 15 8 0 15 5 15 11 0 5 4 8 8 5 5
-3 18 4 30 14 12 11 26 20 32 20 6 0 8 5 5 10 -3 6 -1 10 5 10 11 0 105 64
128 87 7 7 17 13 22 13 5 0 23 13 39 29 16 16 33 26 37 23 4 -4 4 -2 1 4 -3 6
8 25 25 42 16 18 27 32 23 32 -4 0 -3 6 3 13 7 8 6 18 -4 31 -8 11 -14 16 -14
10 0 -5 -5 -1 -11 10 -9 14 -13 15 -19 5 -12 -19 -51 -23 -44 -4 4 8 10 12 15
9 5 -3 20 6 34 20 14 14 25 21 25 16 0 -6 16 8 36 30 20 22 40 38 44 35 5 -3
12 0 16 6 4 8 3 9 -4 5 -7 -4 -12 -3 -12 3 0 5 5 13 10 16 6 4 7 12 4 18 -4 7
-4 9 0 5 11 -9 52 34 48 51 -2 9 2 12 14 7 13 -5 14 -3 7 6 -6 7 -13 20 -16
28 -4 11 -6 11 -6 2z"/>
<path d="M2820 1258 c0 -6 -3 -9 -6 -6 -8 8 -112 -99 -119 -123 -4 -10 -13
-19 -21 -19 -8 0 -13 -4 -10 -9 3 -5 -2 -15 -11 -22 -9 -8 -14 -9 -11 -4 11
19 -10 40 -41 41 -16 0 -28 -3 -25 -8 3 -4 0 -8 -5 -8 -6 0 -25 -15 -43 -33
-18 -18 -25 -23 -15 -12 9 12 15 25 12 28 -3 4 -2 5 2 2 9 -7 57 75 49 83 -19
18 -155 -156 -214 -273 -72 -144 -98 -311 -68 -438 26 -112 91 -221 159 -269
28 -20 27 -17 -11 26 -59 64 -100 155 -114 253 -27 187 55 381 254 602 21 22
40 41 43 41 2 0 -11 -28 -29 -62 -125 -229 -110 -527 35 -701 44 -53 48 -39 5
18 -106 138 -109 392 -6 595 31 61 124 194 177 253 18 21 31 42 28 47 -8 13
-15 12 -15 -2z"/>
<path d="M2950 1247 c0 -5 -13 -21 -29 -36 -16 -14 -37 -42 -47 -61 -10 -19
-29 -47 -42 -62 -13 -14 -24 -30 -23 -35 2 -21 -22 -73 -31 -67 -6 4 -9 1 -6
-7 3 -8 -2 -20 -9 -27 -8 -8 -11 -23 -7 -34 3 -12 2 -18 -3 -15 -5 3 -15 -21
-21 -53 -7 -33 -16 -62 -21 -64 -10 -6 -3 66 7 74 4 3 8 18 9 35 3 35 42 137
57 147 6 4 7 8 3 8 -5 0 1 16 12 36 12 19 18 40 14 46 -4 8 0 9 11 5 10 -4 15
-3 11 3 -3 5 1 23 10 40 8 16 12 30 8 30 -5 0 -1 5 7 10 11 7 12 12 4 20 -9 9
-24 -8 -57 -62 -164 -263 -195 -554 -78 -737 42 -65 111 -128 168 -153 101
-45 228 -30 315 35 49 36 98 123 98 172 0 48 -25 122 -55 161 -27 36 -92 75
-122 73 -11 0 -6 -5 12 -11 52 -19 82 -47 109 -100 52 -104 24 -206 -73 -265
-143 -86 -311 -25 -397 144 -27 55 -29 65 -29 183 0 96 4 138 19 180 32 94 85
197 152 297 35 53 64 98 64 99 0 2 -9 2 -20 1 -11 -1 -20 -5 -20 -10z"/>
</g>
</svg>
